TITLE ""
FILE "1Q_t_1539-1548.mp3" MP3
  TRACK 01 AUDIO
    TITLE "1Q_t_1539-1548_01"
    INDEX 01 00:00:00
  TRACK 02 AUDIO
    TITLE "1Q_t_1539-1548_02"
    INDEX 01 00:01:23
  TRACK 03 AUDIO
    TITLE "1Q_t_1539-1548_03"
    INDEX 01 00:01:29
  TRACK 04 AUDIO
    TITLE "1Q_t_1539-1548_04"
    INDEX 01 00:03:30
  TRACK 05 AUDIO
    TITLE "1Q_t_1539-1548_05"
    INDEX 01 00:03:36
  TRACK 06 AUDIO
    TITLE "1Q_t_1539-1548_06"
    INDEX 01 00:08:06
  TRACK 07 AUDIO
    TITLE "1Q_t_1539-1548_07"
    INDEX 01 00:08:51
  TRACK 08 AUDIO
    TITLE "1Q_t_1539-1548_08"
    INDEX 01 00:10:09
  TRACK 09 AUDIO
    TITLE "1Q_t_1539-1548_09"
    INDEX 01 00:10:19
  TRACK 10 AUDIO
    TITLE "1Q_t_1539-1548_10"
    INDEX 01 00:12:08
  TRACK 11 AUDIO
    TITLE "1Q_t_1539-1548_11"
    INDEX 01 00:12:13
  TRACK 12 AUDIO
    TITLE "1Q_t_1539-1548_12"
    INDEX 01 00:17:46
  TRACK 13 AUDIO
    TITLE "1Q_t_1539-1548_13"
    INDEX 01 00:18:16
  TRACK 14 AUDIO
    TITLE "1Q_t_1539-1548_14"
    INDEX 01 00:19:41
  TRACK 15 AUDIO
    TITLE "1Q_t_1539-1548_15"
    INDEX 01 00:19:51
  TRACK 16 AUDIO
    TITLE "1Q_t_1539-1548_16"
    INDEX 01 00:22:30
  TRACK 17 AUDIO
    TITLE "1Q_t_1539-1548_17"
    INDEX 01 00:22:35
  TRACK 18 AUDIO
    TITLE "1Q_t_1539-1548_18"
    INDEX 01 00:28:03
  TRACK 19 AUDIO
    TITLE "1Q_t_1539-1548_19"
    INDEX 01 00:28:46
  TRACK 20 AUDIO
    TITLE "1Q_t_1539-1548_20"
    INDEX 01 00:29:73
  TRACK 21 AUDIO
    TITLE "1Q_t_1539-1548_21"
    INDEX 01 00:30:07
  TRACK 22 AUDIO
    TITLE "1Q_t_1539-1548_22"
    INDEX 01 00:33:06
  TRACK 23 AUDIO
    TITLE "1Q_t_1539-1548_23"
    INDEX 01 00:33:12
  TRACK 24 AUDIO
    TITLE "1Q_t_1539-1548_24"
    INDEX 01 00:38:09
  TRACK 25 AUDIO
    TITLE "1Q_t_1539-1548_25"
    INDEX 01 00:38:52
  TRACK 26 AUDIO
    TITLE "1Q_t_1539-1548_26"
    INDEX 01 00:40:08
  TRACK 27 AUDIO
    TITLE "1Q_t_1539-1548_27"
    INDEX 01 00:40:18
  TRACK 28 AUDIO
    TITLE "1Q_t_1539-1548_28"
    INDEX 01 00:41:27
  TRACK 29 AUDIO
    TITLE "1Q_t_1539-1548_29"
    INDEX 01 00:41:33
  TRACK 30 AUDIO
    TITLE "1Q_t_1539-1548_30"
    INDEX 01 00:46:46
  TRACK 31 AUDIO
    TITLE "1Q_t_1539-1548_31"
    INDEX 01 00:47:16
  TRACK 32 AUDIO
    TITLE "1Q_t_1539-1548_32"
    INDEX 01 00:48:43
  TRACK 33 AUDIO
    TITLE "1Q_t_1539-1548_33"
    INDEX 01 00:48:49
  TRACK 34 AUDIO
    TITLE "1Q_t_1539-1548_34"
    INDEX 01 00:49:48
  TRACK 35 AUDIO
    TITLE "1Q_t_1539-1548_35"
    INDEX 01 00:49:56
  TRACK 36 AUDIO
    TITLE "1Q_t_1539-1548_36"
    INDEX 01 00:55:37
  TRACK 37 AUDIO
    TITLE "1Q_t_1539-1548_37"
    INDEX 01 00:56:03
  TRACK 38 AUDIO
    TITLE "1Q_t_1539-1548_38"
    INDEX 01 00:57:16
  TRACK 39 AUDIO
    TITLE "1Q_t_1539-1548_39"
    INDEX 01 00:57:22
  TRACK 40 AUDIO
    TITLE "1Q_t_1539-1548_40"
    INDEX 01 00:59:39
  TRACK 41 AUDIO
    TITLE "1Q_t_1539-1548_41"
    INDEX 01 00:59:44
  TRACK 42 AUDIO
    TITLE "1Q_t_1539-1548_42"
    INDEX 01 01:04:01
  TRACK 43 AUDIO
    TITLE "1Q_t_1539-1548_43"
    INDEX 01 01:04:48
  TRACK 44 AUDIO
    TITLE "1Q_t_1539-1548_44"
    INDEX 01 01:05:55
  TRACK 45 AUDIO
    TITLE "1Q_t_1539-1548_45"
    INDEX 01 01:05:63
  TRACK 46 AUDIO
    TITLE "1Q_t_1539-1548_46"
    INDEX 01 01:08:36
  TRACK 47 AUDIO
    TITLE "1Q_t_1539-1548_47"
    INDEX 01 01:08:41
  TRACK 48 AUDIO
    TITLE "1Q_t_1539-1548_48"
    INDEX 01 01:14:32
  TRACK 49 AUDIO
    TITLE "1Q_t_1539-1548_49"
    INDEX 01 01:15:02
  TRACK 50 AUDIO
    TITLE "1Q_t_1539-1548_50"
    INDEX 01 01:16:33
  TRACK 51 AUDIO
    TITLE "1Q_t_1539-1548_51"
    INDEX 01 01:16:41
  TRACK 52 AUDIO
    TITLE "1Q_t_1539-1548_52"
    INDEX 01 01:17:54
  TRACK 53 AUDIO
    TITLE "1Q_t_1539-1548_53"
    INDEX 01 01:17:60
  TRACK 54 AUDIO
    TITLE "1Q_t_1539-1548_54"
    INDEX 01 01:22:49
  TRACK 55 AUDIO
    TITLE "1Q_t_1539-1548_55"
    INDEX 01 01:23:17
  TRACK 56 AUDIO
    TITLE "1Q_t_1539-1548_56"
    INDEX 01 01:24:25
  TRACK 57 AUDIO
    TITLE "1Q_t_1539-1548_57"
    INDEX 01 01:24:33
  TRACK 58 AUDIO
    TITLE "1Q_t_1539-1548_58"
    INDEX 01 01:25:34
  TRACK 59 AUDIO
    TITLE "1Q_t_1539-1548_59"
    INDEX 01 01:25:42
  TRACK 60 AUDIO
    TITLE "1Q_t_1539-1548_60"
    INDEX 01 01:31:11
